C:\Users\r0593348\3dpredictsim\Results\Batchsim_tmt_linear_v2\Pog_s1_tmt_aCst_d02_k250_ig24_act_GRF.mot
nRows=10
nColumns=19

name C:\Users\r0593348\3dpredictsim\Results\Batchsim_tmt_linear_v2\Pog_s1_tmt_aCst_d02_k250_ig24_act_GRF.mot
datacolumns 19
datarows 10
range 0.0000000000 0.1061648653
endheader
time 	ground_force_vx	ground_force_vy	ground_force_vz	ground_force_px	ground_force_py	ground_force_pz	1_ground_force_vx	1_ground_force_vy	1_ground_force_vz	1_ground_force_px	1_ground_force_py	1_ground_force_pz	ground_torque_x	ground_torque_y	ground_torque_z	1_ground_torque_x	1_ground_torque_y	1_ground_torque_z
        0.0000000000	      -73.4893004119	       64.1333361003	       12.5592820923	        0.1634327269	        0.0000000000	        0.0426671803	       26.4168641939	      277.1764359842	       -0.8305814287	       -0.3318279605	        0.0000000000	       -0.0456308912	        0.0000000000	        0.0000000000	        0.0000000000	        0.0000000000	        0.0000000000	        0.0000000000	
        0.0117960961	     -106.4190774165	      181.6827980782	       44.5693814551	        0.1695924167	        0.0000000000	        0.0421523754	       26.0447204980	      248.9874418647	       -6.9692746320	       -0.3297458866	        0.0000000000	       -0.0456319011	        0.0000000000	        0.0000000000	        0.0000000000	        0.0000000000	        0.0000000000	        0.0000000000	
        0.0235921923	      -68.5654968080	      397.0129287523	       10.7673073958	        0.1750221085	        0.0000000000	        0.0417188840	       28.2916072518	      216.0842217419	       -7.8592928400	       -0.3294049319	        0.0000000000	       -0.0456991493	        0.0000000000	        0.0000000000	        0.0000000000	        0.0000000000	        0.0000000000	        0.0000000000	
        0.0353882884	      -92.4222227893	      692.3393689216	       -7.4092058464	        0.1857459469	        0.0000000000	        0.0452800421	       28.6822496714	      173.2010413640	      -11.1520481783	       -0.3289837333	        0.0000000000	       -0.0459892803	        0.0000000000	        0.0000000000	        0.0000000000	        0.0000000000	        0.0000000000	        0.0000000000	
        0.0471843846	     -134.2527338840	      904.2377089210	      -16.6640092919	        0.1948302724	        0.0000000000	        0.0485612671	       19.8846498880	      124.5958407173	      -14.6201903144	       -0.3290329366	        0.0000000000	       -0.0464485949	        0.0000000000	        0.0000000000	        0.0000000000	        0.0000000000	        0.0000000000	        0.0000000000	
        0.0589804807	     -146.6940565723	      951.8091601295	      -19.1164519812	        0.2004050360	        0.0000000000	        0.0503479833	        3.9728418482	       62.4175202550	      -12.6925583011	       -0.3297847035	        0.0000000000	       -0.0470099543	        0.0000000000	        0.0000000000	        0.0000000000	        0.0000000000	        0.0000000000	        0.0000000000	
        0.0707765768	     -134.1361999943	      915.4587537539	      -20.3529255246	        0.2050087237	        0.0000000000	        0.0514548437	      -12.6680982833	       14.8110748533	       -4.1415107004	       -0.3365136330	        0.0000000000	       -0.0470000152	        0.0000000000	        0.0000000000	        0.0000000000	        0.0000000000	        0.0000000000	        0.0000000000	
        0.0825726730	     -118.8612896037	      868.3553102143	      -18.0454265762	        0.2101484847	        0.0000000000	        0.0523862899	      -17.0679785498	       14.1686308495	       -0.0531402967	       -0.3299310780	        0.0000000000	       -0.0445562974	        0.0000000000	        0.0000000000	        0.0000000000	        0.0000000000	        0.0000000000	        0.0000000000	
        0.0943687691	     -111.7499005213	      843.2617296737	      -18.0611161410	        0.2175184045	        0.0000000000	        0.0531084015	      -20.5125079996	       14.6236722508	        0.2139430762	       -0.3158562398	        0.0000000000	       -0.0449753985	        0.0000000000	        0.0000000000	        0.0000000000	        0.0000000000	        0.0000000000	        0.0000000000	
        0.1061648653	     -101.5281644288	      805.5534009640	      -17.0363884879	        0.2251451666	        0.0000000000	        0.0535535911	      -20.5401242135	       12.9731277867	        0.3449097011	       -0.2972226995	        0.0000000000	       -0.0455089204	        0.0000000000	        0.0000000000	        0.0000000000	        0.0000000000	        0.0000000000	        0.0000000000	
